<?xml version="1.0" encoding="UTF-8"?>
<svg version="1.1" xmlns="http://www.w3.org/2000/svg" width="150" height="150">
<path d="M0 0 C49.5 0 99 0 150 0 C150 49.5 150 99 150 150 C100.5 150 51 150 0 150 C0 100.5 0 51 0 0 Z " fill="#0965C1" transform="translate(0,0)"/>
<path d="M0 0 C5.50393444 3.32293612 7.92633579 8.31207186 10.08984375 14.26171875 C10.91205644 17.70662801 11.21232452 20.88181312 11.20336914 24.41918945 C11.20325584 25.92017937 11.20325584 25.92017937 11.20314026 27.45149231 C11.19797897 28.51937485 11.19281769 29.58725739 11.1875 30.6875 C11.18608505 31.79022751 11.1846701 32.89295502 11.18321228 34.02909851 C11.17762379 37.54416642 11.16507334 41.05917016 11.15234375 44.57421875 C11.14732727 46.96028554 11.14276462 49.34635332 11.13867188 51.73242188 C11.12765812 57.57554548 11.11040133 63.41862124 11.08984375 69.26171875 C4.15984375 69.26171875 -2.77015625 69.26171875 -9.91015625 69.26171875 C-9.94753906 66.23886719 -9.98492187 63.21601562 -10.0234375 60.1015625 C-10.06970893 57.15918937 -10.12092218 54.21694063 -10.17260742 51.2746582 C-10.20576809 49.2369753 -10.23382737 47.19920251 -10.2565918 45.16137695 C-10.29030087 42.22438412 -10.34262499 39.28820852 -10.3984375 36.3515625 C-10.40482742 35.44711899 -10.41121735 34.54267548 -10.4178009 33.61082458 C-10.54444169 28.10631575 -11.22902875 24.11115523 -13.91015625 19.26171875 C-18.16880081 16.42262238 -21.913324 16.7508605 -26.91015625 17.26171875 C-30.26827665 18.59097474 -31.45288211 19.4157616 -33.16015625 22.57421875 C-34.79342136 28.42675207 -35.10056901 34.12727358 -35.2265625 40.16015625 C-35.2473436 40.99511627 -35.26812469 41.83007629 -35.28953552 42.69033813 C-35.35455094 45.33905365 -35.41369116 47.98786234 -35.47265625 50.63671875 C-35.51588721 52.44011353 -35.55950291 54.24349913 -35.60351562 56.046875 C-35.71090167 60.45172911 -35.81033093 64.85666093 -35.91015625 69.26171875 C-42.84015625 69.26171875 -49.77015625 69.26171875 -56.91015625 69.26171875 C-56.91015625 46.16171875 -56.91015625 23.06171875 -56.91015625 -0.73828125 C-50.31015625 -0.73828125 -43.71015625 -0.73828125 -36.91015625 -0.73828125 C-36.91015625 2.23171875 -36.91015625 5.20171875 -36.91015625 8.26171875 C-36.25015625 7.53984375 -35.59015625 6.81796875 -34.91015625 6.07421875 C-25.3220502 -3.54128189 -12.41835161 -5.73619159 0 0 Z " fill="#FFFFFF" transform="translate(115.91015625,57.73828125)"/>
<path d="M0 0 C6.93 0 13.86 0 21 0 C21 23.1 21 46.2 21 70 C14.07 70 7.14 70 0 70 C0 46.9 0 23.8 0 0 Z " fill="#FFFFFF" transform="translate(23,57)"/>
<path d="M0 0 C4.29696335 3.38271583 6.66927091 6.46441031 7.375 11.875 C6.78146428 16.82113103 4.50741708 19.77776994 0.6875 22.875 C-2.79352761 24.33217435 -5.25528098 24.40121989 -9 24 C-12.18459646 22.48007896 -14.73579966 20.71704041 -17 18 C-18.48728837 13.53813488 -18.71130532 9.69922938 -16.875 5.3125 C-12.03127711 -0.66142489 -7.26622087 -2.33269821 0 0 Z " fill="#FFFFFF" transform="translate(39,22)"/>
<path d="M0 0 C0.33 0 0.66 0 1 0 C1 1.98 1 3.96 1 6 C-1.31 6 -3.62 6 -6 6 C-4 4 -2 2 0 0 Z " fill="#000000" transform="translate(149,144)"/>
<path d="M0 0 C1.98 0 3.96 0 6 0 C6 2.31 6 4.62 6 7 C4.5 5.625 4.5 5.625 3 4 C3 3.34 3 2.68 3 2 C2.01 1.67 1.02 1.34 0 1 C0 0.67 0 0.34 0 0 Z " fill="#000000" transform="translate(144,0)"/>
<path d="M0 0 C1.98 0 3.96 0 6 0 C5.67 0.66 5.34 1.32 5 2 C4.34 2 3.68 2 3 2 C2.34 3.65 1.68 5.3 1 7 C0.67 7 0.34 7 0 7 C0 4.69 0 2.38 0 0 Z " fill="#000000" transform="translate(0,0)"/>
<path d="M0 0 C2.02054804 1.64169528 4.02043058 3.30911778 6 5 C6 5.33 6 5.66 6 6 C4.02 6 2.04 6 0 6 C0 4.02 0 2.04 0 0 Z " fill="#000000" transform="translate(0,144)"/>
</svg>
